<?xml version="1.0" encoding="UTF-8"?>
<svg xmlns="http://www.w3.org/2000/svg" viewBox="0 0 1920 1080">
  <defs>
    <clipPath id="bg-clip-01">
      <rect x="-5" y="-5" width="1930" height="1090"/>
    </clipPath>
  </defs>
  <rect x="-5" y="-5" width="1930" height="1090" fill="#ceb8d3"/>
  <g clip-path="url(#bg-clip-01)" fill="none" stroke="#ffffff" stroke-miterlimit="10" stroke-width="1.42">
    <path d="M-5,59.63c193,0,193,20,386,20s193-20,385.99-20,193,20,386,20,193-20,386-20,193,20,386,20"/>
    <path d="M-5,68.13c193,0,193,20,386,20s193-20,385.99-20,193,20,386,20,193-20,386-20,193,20,386,20"/>
    <path d="M-5,76.62c193,0,193,20,386,20s193-20,385.99-20,193,20,386,20,193-20,386-20,193,20,386,20"/>
    <path d="M-5,85.12c193,0,193,20,386,20s193-20,385.99-20,193,20,386,20,193-20,386-20,193,20,386,20"/>
    <path d="M-5,93.61c193,0,193,20,386,20s193-20,385.99-20,193,20,386,20,193-20,386-20,193,20,386,20"/>
    <path d="M-5,991.59c193,0,193,20,386,20s193-20,385.99-20,193,20,386,20,193-20,386-20,193,20,386,20"/>
  </g>
</svg>
