<?xml version="1.0"?>
<svg id="_圖層_1" data-name="圖層 1" xmlns="http://www.w3.org/2000/svg" viewBox="0 0 255.2 347.06">
  <defs>
    
  </defs>
  <g>
    <path class="cls-1" d="M214.36,89.84v167.38c0,27.74-22.48,50.22-50.21,50.22-3.94,0-7.77-.45-11.44-1.32,22.22-5.17,38.77-25.1,38.77-48.9V89.84c0-23.8-16.55-43.73-38.77-48.9,3.67-.87,7.5-1.32,11.44-1.32,27.73,0,50.21,22.48,50.21,50.22Z"></path>
    <path class="cls-2" d="M141.26,89.84v167.38c0,13.33-5.19,25.45-13.66,34.43-8.48-8.98-13.67-21.1-13.67-34.43V89.84c0-13.33,5.19-25.45,13.67-34.43,8.47,8.98,13.66,21.1,13.66,34.43Z"></path>
    <path class="cls-2" d="M191.48,89.84v167.38c0,23.8-16.55,43.73-38.77,48.9-4.87-1.12-9.46-2.96-13.67-5.4,15.01-8.68,25.11-24.91,25.11-43.5V89.84c0-18.59-10.1-34.82-25.11-43.5,4.21-2.44,8.8-4.28,13.67-5.4,22.22,5.17,38.77,25.1,38.77,48.9Z"></path>
  </g>
  <path class="cls-2" d="M127.6,55.41c-8.48,8.98-13.67,21.1-13.67,34.43v167.38c0,13.33,5.19,25.45,13.67,34.43,8.47-8.98,13.66-21.1,13.66-34.43V89.84c0-13.33-5.19-25.45-13.66-34.43ZM152.71,40.94c-3.68-.87-7.51-1.32-11.45-1.32-4.74,0-9.32.66-13.66,1.88,4.04,1.14,7.88,2.78,11.44,4.84,15.01,8.68,25.11,24.91,25.11,43.5v167.38c0,18.59-10.1,34.82-25.11,43.5-3.56,2.06-7.4,3.7-11.44,4.84,4.34,1.22,8.92,1.88,13.66,1.88,3.94,0,7.77-.45,11.45-1.32,22.22-5.17,38.77-25.1,38.77-48.9V89.84c0-23.8-16.55-43.73-38.77-48.9ZM141.26,257.22V89.84c0-13.33-5.19-25.45-13.66-34.43-8.48,8.98-13.67,21.1-13.67,34.43v167.38c0,13.33,5.19,25.45,13.67,34.43,8.47-8.98,13.66-21.1,13.66-34.43ZM127.6,55.41c-8.48,8.98-13.67,21.1-13.67,34.43v167.38c0,13.33,5.19,25.45,13.67,34.43,8.47-8.98,13.66-21.1,13.66-34.43V89.84c0-13.33-5.19-25.45-13.66-34.43Z"></path>
  <g>
    <path class="cls-1" d="M164.15,89.84v167.38c0,18.59-10.1,34.82-25.11,43.5-4.25-2.45-8.11-5.52-11.44-9.07,8.47-8.98,13.66-21.1,13.66-34.43V89.84c0-13.33-5.19-25.45-13.66-34.43,3.33-3.55,7.19-6.62,11.44-9.07,15.01,8.68,25.11,24.91,25.11,43.5Z"></path>
    <path class="cls-1" d="M139.04,46.34c-4.25,2.45-8.11,5.52-11.44,9.07-3.34-3.55-7.2-6.62-11.45-9.07,3.57-2.06,7.4-3.7,11.45-4.84,4.04,1.14,7.88,2.78,11.44,4.84Z"></path>
    <path class="cls-1" d="M139.04,300.72c-3.56,2.06-7.4,3.7-11.44,4.84-4.05-1.14-7.88-2.78-11.45-4.84,4.25-2.45,8.11-5.52,11.45-9.07,3.33,3.55,7.19,6.62,11.44,9.07Z"></path>
    <path class="cls-2" d="M116.15,300.72c3.57,2.06,7.4,3.7,11.45,4.84-4.35,1.22-8.93,1.88-13.67,1.88-3.93,0-7.76-.45-11.44-1.32-22.22-5.17-38.77-25.1-38.77-48.9V89.84c0-23.8,16.55-43.73,38.77-48.9,3.68-.87,7.51-1.32,11.44-1.32,4.74,0,9.32.66,13.67,1.88-4.05,1.14-7.88,2.78-11.45,4.84-15.01,8.68-25.11,24.91-25.11,43.5v167.38c0,18.59,10.1,34.82,25.11,43.5Z"></path>
    <path class="cls-2" d="M141.26,257.22c0,13.33-5.19,25.45-13.66,34.43-8.48-8.98-13.67-21.1-13.67-34.43V89.84c0-13.33,5.19-25.45,13.67-34.43,8.47,8.98,13.66,21.1,13.66,34.43v167.38Z"></path>
  </g>
  <g>
    <path class="cls-1" d="M102.49,306.12c-3.68.87-7.51,1.32-11.45,1.32-27.73,0-50.21-22.48-50.21-50.22V89.84c0-27.74,22.48-50.22,50.21-50.22,3.94,0,7.77.45,11.45,1.32-22.22,5.17-38.77,25.1-38.77,48.9v167.38c0,23.8,16.55,43.73,38.77,48.9Z"></path>
    <path class="cls-1" d="M113.93,257.22c0,13.33,5.19,25.45,13.67,34.43-3.34,3.55-7.2,6.62-11.45,9.07-15.01-8.68-25.11-24.91-25.11-43.5V89.84c0-18.59,10.1-34.82,25.11-43.5,4.25,2.45,8.11,5.52,11.45,9.07-8.48,8.98-13.67,21.1-13.67,34.43v167.38Z"></path>
    <path class="cls-2" d="M116.15,300.72c-4.2,2.43-8.79,4.27-13.66,5.4-22.22-5.17-38.77-25.1-38.77-48.9V89.84c0-23.8,16.55-43.73,38.77-48.9,4.87,1.13,9.46,2.97,13.66,5.4-15.01,8.68-25.11,24.91-25.11,43.5v167.38c0,18.59,10.1,34.82,25.11,43.5Z"></path>
    <path class="cls-2" d="M141.26,89.84v167.38c0,13.33-5.19,25.45-13.66,34.43-8.48-8.98-13.67-21.1-13.67-34.43V89.84c0-13.33,5.19-25.45,13.67-34.43,8.47,8.98,13.66,21.1,13.66,34.43Z"></path>
  </g>
</svg>