<?xml version="1.0"?>
<svg id="_圖層_1" data-name="圖層 1" xmlns="http://www.w3.org/2000/svg" viewBox="0 0 255.2 347.06">
  <defs>
    
  </defs>
  <polygon class="cls-1" points="203.91 311.07 203.91 43.25 203.91 43.25 103.48 311.07 103.48 311.07 203.91 311.07"></polygon>
  <polygon class="cls-1" points="180.76 311.07 180.76 43.25 180.76 43.25 80.33 311.07 80.33 311.07 180.76 311.07"></polygon>
  <polygon class="cls-1" points="157.6 311.07 157.6 43.25 157.6 43.25 57.17 311.07 57.17 311.07 157.6 311.07"></polygon>
  <polygon class="cls-1" points="57.17 311.07 57.17 43.25 57.17 43.25 157.6 311.07 157.6 311.07 57.17 311.07"></polygon>
  <polygon class="cls-1" points="80.33 311.07 80.33 43.25 80.33 43.25 180.76 311.07 180.76 311.07 80.33 311.07"></polygon>
  <polygon class="cls-1" points="103.48 311.07 103.48 43.25 103.48 43.25 203.91 311.07 203.91 311.07 103.48 311.07"></polygon>
</svg>