<?xml version="1.0"?>
<svg id="_圖層_1" data-name="圖層 1" xmlns="http://www.w3.org/2000/svg" viewBox="0 0 400.79 347.06">
  <defs>
    
  </defs>
  <path class="cls-1" d="M277.33,61.09h0c-19.61-19.61-51.41-19.61-71.02,0l-118.36,118.36c-19.61,19.61-19.61,51.41,0,71.02,19.61,19.61,51.41,19.61,71.02,0l118.36-118.36c19.61-19.61,19.61-51.41,0-71.02Z"></path>
  <path class="cls-1" d="M312.84,96.59h0c-19.61-19.61-51.41-19.61-71.02,0l-118.36,118.36c-19.61,19.61-19.61,51.41,0,71.02,19.61,19.61,51.41,19.61,71.02,0l118.36-118.36c19.61-19.61,19.61-51.41,0-71.02Z"></path>
  <path class="cls-1" d="M312.84,250.46h0c19.61-19.61,19.61-51.41,0-71.02l-118.36-118.36c-19.61-19.61-51.41-19.61-71.02,0-19.61,19.61-19.61,51.41,0,71.02l118.36,118.36c19.61,19.61,51.41,19.61,71.02,0Z"></path>
  <path class="cls-1" d="M277.33,285.97h0c19.61-19.61,19.61-51.41,0-71.02l-118.36-118.36c-19.61-19.61-51.41-19.61-71.02,0-19.61,19.61-19.61,51.41,0,71.02l118.36,118.36c19.61,19.61,51.41,19.61,71.02,0Z"></path>
</svg>