<svg xmlns="http://www.w3.org/2000/svg" viewBox="0 0 922.56 281.13">
  <polygon fill="#B8B4C6" points="21.84 6.66 21.84 274.47 122.27 6.66 21.84 6.66"></polygon>
  <polygon fill="none" stroke="#B8B4C6" stroke-width="2.5" stroke-linejoin="round" points="133.72 6.66 133.72 274.47 234.15 6.66 133.72 6.66"></polygon>
  <polygon fill="none" stroke="#B8B4C6" stroke-width="2.5" stroke-linejoin="round" points="245.59 6.66 245.59 274.47 346.03 6.66 245.59 6.66"></polygon>
  <polygon fill="none" stroke="#B8B4C6" stroke-width="2.5" stroke-linejoin="round" points="357.47 6.66 357.47 274.47 457.9 6.66 357.47 6.66"></polygon>
  <polygon fill="none" stroke="#B8B4C6" stroke-width="2.5" stroke-linejoin="round" points="469.35 6.66 469.35 274.47 569.78 6.66 469.35 6.66"></polygon>
  <polygon fill="none" stroke="#B8B4C6" stroke-width="2.5" stroke-linejoin="round" points="581.22 6.66 581.22 274.47 681.65 6.66 581.22 6.66"></polygon>
  <polygon fill="none" stroke="#B8B4C6" stroke-width="2.5" stroke-linejoin="round" points="693.1 6.66 693.1 274.47 793.53 6.66 693.1 6.66"></polygon>
  <polygon fill="none" stroke="#B8B4C6" stroke-width="2.5" stroke-linejoin="round" points="804.97 6.66 804.97 274.47 905.4 6.66 804.97 6.66"></polygon>
</svg>