<svg xmlns="http://www.w3.org/2000/svg" viewBox="0 0 922.56 281.13">
  <path fill="#B8B4C6" d="M60.61,10.01c-27.73,0-50.22,22.48-50.22,50.22v167.39c0,27.73,22.48,50.22,50.22,50.22s50.22-22.48,50.22-50.22V60.23c0-27.73-22.48-50.22-50.22-50.22Z"></path>
  <path fill="none" stroke="#B8B4C6" stroke-width="2.5" d="M172.49,10.01c-27.73,0-50.22,22.48-50.22,50.22v167.39c0,27.73,22.48,50.22,50.22,50.22s50.22-22.48,50.22-50.22V60.23c0-27.73-22.48-50.22-50.22-50.22Z"></path>
  <path fill="none" stroke="#B8B4C6" stroke-width="2.5" d="M284.37,10.01c-27.73,0-50.22,22.48-50.22,50.22v167.39c0,27.73,22.48,50.22,50.22,50.22s50.22-22.48,50.22-50.22V60.23c0-27.73-22.48-50.22-50.22-50.22Z"></path>
  <path fill="none" stroke="#B8B4C6" stroke-width="2.5" d="M396.24,10.01c-27.73,0-50.22,22.48-50.22,50.22v167.39c0,27.73,22.48,50.22,50.22,50.22s50.22-22.48,50.22-50.22V60.23c0-27.73-22.48-50.22-50.22-50.22Z"></path>
  <path fill="none" stroke="#B8B4C6" stroke-width="2.5" d="M508.12,10.01c-27.73,0-50.22,22.48-50.22,50.22v167.39c0,27.73,22.48,50.22,50.22,50.22s50.22-22.48,50.22-50.22V60.23c0-27.73-22.48-50.22-50.22-50.22Z"></path>
  <path fill="none" stroke="#B8B4C6" stroke-width="2.5" d="M619.99,10.01c-27.73,0-50.22,22.48-50.22,50.22v167.39c0,27.73,22.48,50.22,50.22,50.22s50.22-22.48,50.22-50.22V60.23c0-27.73-22.48-50.22-50.22-50.22Z"></path>
  <path fill="none" stroke="#B8B4C6" stroke-width="2.5" d="M731.87,10.01c-27.73,0-50.22,22.48-50.22,50.22v167.39c0,27.73,22.48,50.22,50.22,50.22s50.22-22.48,50.22-50.22V60.23c0-27.73-22.48-50.22-50.22-50.22Z"></path>
  <path fill="none" stroke="#B8B4C6" stroke-width="2.5" d="M843.75,10.01c-27.73,0-50.22,22.48-50.22,50.22v167.39c0,27.73,22.48,50.22,50.22,50.22s50.22-22.48,50.22-50.22V60.23c0-27.73-22.48-50.22-50.22-50.22Z"></path>
</svg>