<?xml version="1.0" encoding="UTF-8"?>
<svg id="_圖層_2" data-name="圖層 2" xmlns="http://www.w3.org/2000/svg" viewBox="0 0 478.61 478.61">
  <defs>
    <style>
      .cls-1 {
        fill: #fff;
      }

      .cls-2 {
        fill: #ceb8d3;
        stroke: #fff;
        stroke-miterlimit: 10;
        stroke-width: 2.78px;
      }
    </style>
  </defs>
  <rect class="cls-2" x="1.39" y="1.39" width="475.84" height="475.84" transform="translate(478.61 0) rotate(90)"/>
  <g>
    <path class="cls-1" d="M193.01,319.67l.33-16.63.74.07-.3,16.56c-.02,1.14.16,1.93.55,2.39.39.46,1.14.68,2.25.68.04,0,.07.07.07.2s-.02.2-.07.2c-.49,0-1-.01-1.52-.03-.52-.02-1.1-.03-1.72-.03-.53,0-1.05.01-1.54.03-.49.02-.96.03-1.4.03-.04,0-.07-.07-.07-.2s.02-.2.07-.2c.94,0,1.6-.23,1.99-.68.39-.46.59-1.25.62-2.39ZM215.95,322.75c.07,0,.1.07.1.2s-.03.2-.1.2c-.53,0-1.13-.01-1.79-.03-.66-.02-1.35-.03-2.09-.03-.69,0-1.32.01-1.9.03-.58.02-1.1.03-1.57.03-.04,0-.07-.07-.07-.2s.02-.2.07-.2c1.11,0,1.83-.14,2.15-.43.32-.29.46-.91.42-1.87l-.6-16.46.97-1.24-8.75,20.17c-.02.09-.11.13-.27.13s-.26-.04-.3-.13l-8.15-17.87c-.71-1.58-1.86-2.37-3.44-2.37-.04,0-.07-.07-.07-.2s.02-.2.07-.2c.33,0,.69.01,1.07.03.38.02.69.03.93.03.31,0,.6-.01.87-.03.27-.02.47-.03.6-.03.31,0,.56.1.73.3.18.2.45.68.8,1.44l7.65,16.53-.87,1.4,8.21-18.83c.11-.24.26-.44.45-.6.19-.16.37-.23.55-.23.11,0,.28.01.5.03.22.02.48.03.77.03.58,0,1.05-.01,1.4-.03.36-.02.74-.03,1.14-.03.04,0,.07.07.07.2s-.02.2-.07.2c-1.09,0-1.89.14-2.4.42-.51.28-.76.89-.73,1.82l.63,15.53c.02.65.1,1.14.25,1.47.14.33.43.56.85.67.42.11,1.06.17,1.9.17Z"/>
    <path class="cls-1" d="M226.47,320.44c0,.65.07,1.14.2,1.47.13.33.42.56.85.67.43.11,1.07.17,1.92.17.04,0,.07.07.07.2s-.02.2-.07.2c-.53,0-1.12-.01-1.77-.03-.65-.02-1.36-.03-2.14-.03-.73,0-1.43.01-2.09.03-.66.02-1.25.03-1.79.03-.07,0-.1-.07-.1-.2s.03-.2.1-.2c.85,0,1.49-.06,1.92-.17.43-.11.72-.33.87-.67.14-.33.22-.82.22-1.47v-15.46c0-.65-.07-1.13-.22-1.45-.15-.32-.43-.54-.87-.67-.43-.12-1.08-.18-1.92-.18-.07,0-.1-.07-.1-.2s.03-.2.1-.2c.53,0,1.13.02,1.79.05.66.03,1.35.05,2.09.05.78,0,1.5-.02,2.15-.05.66-.03,1.24-.05,1.75-.05.04,0,.07.07.07.2s-.02.2-.07.2c-.85,0-1.48.07-1.9.2-.42.13-.71.37-.85.7-.15.33-.22.82-.22,1.47v15.39Z"/>
    <path class="cls-1" d="M246.64,323.55c-1.6,0-3.06-.28-4.36-.85-1.3-.57-2.42-1.35-3.34-2.35-.92-1-1.64-2.15-2.14-3.46s-.75-2.69-.75-4.16c0-1.8.35-3.38,1.05-4.74.7-1.36,1.63-2.49,2.79-3.39,1.16-.9,2.43-1.57,3.81-2.02,1.38-.44,2.75-.67,4.11-.67,1.65,0,3.12.3,4.42.89,1.3.59,2.41,1.39,3.32,2.39.91,1,1.61,2.14,2.09,3.41.48,1.27.72,2.57.72,3.91,0,1.56-.31,3.01-.94,4.34-.62,1.34-1.47,2.5-2.55,3.51-1.08,1-2.33,1.79-3.74,2.35-1.41.57-2.91.85-4.49.85ZM247.84,322.88c1.56,0,2.97-.36,4.24-1.09,1.27-.72,2.28-1.79,3.02-3.21.75-1.41,1.12-3.13,1.12-5.16s-.41-3.98-1.22-5.59-1.95-2.88-3.42-3.81c-1.47-.92-3.19-1.39-5.18-1.39-2.58,0-4.6.8-6.04,2.4-1.45,1.6-2.17,3.79-2.17,6.54,0,1.56.23,3.02.68,4.39.46,1.37,1.11,2.57,1.97,3.61.86,1.04,1.88,1.84,3.06,2.42,1.18.58,2.49.87,3.94.87Z"/>
    <path class="cls-1" d="M268.87,322.41c-.11.29-.21.48-.3.58-.09.1-.22.15-.4.15h-1.1c-.07,0-.13-.03-.18-.08-.06-.06-.07-.13-.05-.22l8.42-18.97c.09-.16.03-.23-.17-.23-1.89,0-3.46.01-4.69.03-1.24.02-2.21.08-2.94.17-.72.09-1.27.22-1.64.38-.37.17-.63.38-.8.65s-.32.61-.45,1.04c-.02.09-.09.12-.22.1-.12-.02-.17-.08-.15-.17l1.07-4.44c.04-.07.13-.09.25-.08.12.01.17.05.15.12-.09.36-.03.58.17.68.2.1.67.15,1.4.15h8.85c.11,0,.2.06.27.17s.08.2.03.27l-7.51,19.7Z"/>
  </g>
  <polygon class="cls-1" points="244.07 125.27 244.07 277.73 244.07 277.73 301.25 125.27 301.25 125.27 244.07 125.27 244.07 125.27"/>
  <path class="cls-1" d="M205.95,125.27h0c-15.79,0-28.59,12.8-28.59,28.59v95.29c0,15.79,12.8,28.59,28.59,28.59s28.59-12.8,28.59-28.59v-95.29c0-15.79-12.8-28.59-28.59-28.59Z"/>
  <g>
    <path class="cls-1" d="M196.89,350.21c.44.26.91.55,1.39.88.48.33.95.66,1.4.97.45.31.83.59,1.14.83l-.69,1c-.29-.26-.66-.55-1.11-.88-.45-.33-.92-.67-1.42-1.02-.49-.35-.96-.66-1.4-.93l.69-.84ZM196.79,364.91c.36-.66.75-1.46,1.17-2.4.43-.94.86-1.91,1.29-2.93.43-1.02.83-2.01,1.19-2.96l.92.69c-.32.9-.68,1.85-1.08,2.84-.4,1-.81,1.97-1.24,2.92-.43.95-.83,1.81-1.2,2.58l-1.05-.74ZM198.2,343.27c.41.31.84.64,1.3.99.46.36.9.71,1.31,1.05.42.34.76.64,1.03.89l-.79.94c-.26-.27-.59-.59-1.01-.96-.42-.37-.85-.74-1.31-1.11-.46-.37-.89-.71-1.3-1.02l.77-.79ZM211.87,353.55c-.73.66-1.6,1.29-2.6,1.89-1,.6-2.05,1.14-3.15,1.63-1.1.49-2.16.93-3.18,1.3-.05-.07-.12-.17-.22-.29-.09-.13-.19-.25-.29-.37-.1-.12-.2-.21-.28-.28,1.05-.32,2.12-.71,3.2-1.15s2.1-.93,3.06-1.47c.96-.54,1.78-1.1,2.46-1.7l.99.43ZM219.14,346.69v4.06h-1.12v-3.09h-14.42v3.09h-1.1v-4.06h16.64ZM203.71,352.63c.75-.17,1.62-.4,2.6-.69.99-.29,2.01-.59,3.06-.89l.13.84c-.95.29-1.88.58-2.78.87-.9.29-1.74.56-2.53.82l-.48-.94ZM217.74,343.81v1.05h-13.83v-1.05h13.83ZM204.85,348.5c.49.08,1.02.2,1.59.33.57.14,1.11.28,1.63.42.52.14.96.27,1.31.37l-.38.89c-.36-.14-.79-.28-1.31-.42-.52-.14-1.06-.29-1.63-.45-.57-.15-1.1-.28-1.59-.38l.38-.77ZM216.05,358.68v1.05h-11.48v-1.05h11.48ZM213.78,356.54v.92h-6.68v-.92h6.68ZM207.76,361.79c.66.34,1.35.71,2.05,1.12s1.38.82,2.03,1.22,1.19.77,1.63,1.07l-.71.82c-.43-.32-.96-.7-1.59-1.12s-1.31-.85-2.03-1.29c-.71-.43-1.39-.82-2.04-1.16l.66-.66ZM210.9,353.68c.46.34,1.03.68,1.71,1.01s1.42.65,2.22.96,1.6.58,2.4.83,1.55.46,2.25.62c-.14.14-.26.3-.37.5-.11.2-.19.37-.24.52-.94-.31-1.96-.66-3.07-1.07-1.11-.41-2.18-.85-3.19-1.34s-1.86-.97-2.54-1.47l.84-.56ZM211.23,344.16v8.68h-1.12v-8.68h1.12ZM216.11,358.68l.2-.08.82.59c-.54.49-1.15,1.04-1.81,1.65-.66.6-1.34,1.21-2.03,1.82-.69.61-1.36,1.2-2,1.76l-.97-.71c.66-.54,1.33-1.11,2.02-1.71.68-.59,1.33-1.17,1.95-1.72.62-.55,1.14-1.02,1.54-1.42v-.18h.28ZM217.18,349.37c-.46.17-.98.33-1.57.47s-1.17.27-1.76.37-1.12.2-1.59.28l-.51-.71c.49-.08,1.03-.2,1.62-.34s1.17-.3,1.73-.46c.57-.16,1.05-.3,1.44-.42l.64.82ZM212.23,351.15c.63.12,1.3.26,2.02.43.71.17,1.4.34,2.05.52.66.18,1.21.36,1.67.55l-.38.89c-.44-.17-1-.36-1.66-.56-.66-.2-1.36-.4-2.08-.59-.72-.19-1.4-.34-2.03-.46l.41-.79Z"/>
    <path class="cls-1" d="M256.6,360.11c-.65.71-1.45,1.4-2.42,2.04-.97.65-1.99,1.23-3.07,1.75-1.08.52-2.12.94-3.13,1.26-.05-.12-.13-.24-.23-.37-.1-.13-.21-.25-.32-.37-.11-.12-.22-.21-.32-.28,1.02-.27,2.06-.64,3.13-1.11,1.06-.47,2.06-1,3-1.58s1.71-1.19,2.32-1.82l1.05.48ZM248.05,346.23c.48.17.98.36,1.5.57s1.03.42,1.52.62c.48.2.88.4,1.19.59l-.61.97c-.32-.17-.73-.37-1.21-.6-.49-.23-.99-.46-1.52-.69-.53-.23-1.03-.43-1.5-.6l.64-.87ZM270.12,357.35v1.17h-22.55v-1.17h22.55ZM247.95,354.73c.48-.46,1.02-1,1.62-1.63.6-.63,1.22-1.29,1.85-1.99.63-.7,1.23-1.38,1.79-2.04l.69.84c-.78.95-1.62,1.95-2.53,2.99-.9,1.04-1.76,1.96-2.58,2.78l-.84-.94ZM249.78,342.94c.46.17.96.37,1.49.6.54.23,1.05.46,1.53.69.49.23.89.44,1.21.62l-.64.97c-.32-.2-.73-.42-1.21-.66-.48-.24-.99-.48-1.5-.73-.52-.25-1.03-.46-1.52-.65l.64-.84ZM269.43,345.52l.13,1.1-15.16,2.02-.18-1.1,15.21-2.02ZM259.4,354.65v11.4h-1.25v-11.4h1.25ZM259.94,351.79c0,.46.07.78.22.96.14.18.45.27.91.27h5.97c.32,0,.71-.01,1.15-.04.44-.03.78-.06,1.02-.09.02.17.04.36.06.56s.05.37.06.51c-.19.05-.48.08-.89.1s-.86.03-1.35.03h-6.02c-.61,0-1.09-.08-1.44-.23-.35-.15-.59-.4-.73-.74-.14-.34-.2-.79-.2-1.35v-8.8h1.25v8.83ZM261.93,359.52c.93.43,1.93.91,2.97,1.44,1.05.54,2.05,1.07,3,1.59.95.53,1.74,1,2.37,1.4l-.69,1.05c-.61-.43-1.39-.91-2.33-1.45s-1.94-1.09-2.99-1.65-2.04-1.05-3-1.49l.66-.89Z"/>
  </g>
</svg>