<?xml version="1.0"?>
<svg id="_圖層_1" data-name="圖層 1" xmlns="http://www.w3.org/2000/svg" viewBox="0 0 922.56 281.13">
  <defs>
    
  </defs>
  <path class="cls-1" d="M60.61,10.01h0c-27.73,0-50.22,22.48-50.22,50.22v167.39c0,27.73,22.48,50.22,50.22,50.22s50.22-22.48,50.22-50.22V60.23c0-27.73-22.48-50.22-50.22-50.22Z"></path>
  <path class="cls-2" d="M172.49,10.01h0c-27.73,0-50.22,22.48-50.22,50.22v167.39c0,27.73,22.48,50.22,50.22,50.22s50.22-22.48,50.22-50.22V60.23c0-27.73-22.48-50.22-50.22-50.22Z"></path>
  <path class="cls-2" d="M284.37,10.01h0c-27.73,0-50.22,22.48-50.22,50.22v167.39c0,27.73,22.48,50.22,50.22,50.22s50.22-22.48,50.22-50.22V60.23c0-27.73-22.48-50.22-50.22-50.22Z"></path>
  <path class="cls-2" d="M396.24,10.01h0c-27.73,0-50.22,22.48-50.22,50.22v167.39c0,27.73,22.48,50.22,50.22,50.22s50.22-22.48,50.22-50.22V60.23c0-27.73-22.48-50.22-50.22-50.22Z"></path>
  <path class="cls-2" d="M508.12,10.01h0c-27.73,0-50.22,22.48-50.22,50.22v167.39c0,27.73,22.48,50.22,50.22,50.22s50.22-22.48,50.22-50.22V60.23c0-27.73-22.48-50.22-50.22-50.22Z"></path>
  <path class="cls-2" d="M619.99,10.01h0c-27.73,0-50.22,22.48-50.22,50.22v167.39c0,27.73,22.48,50.22,50.22,50.22s50.22-22.48,50.22-50.22V60.23c0-27.73-22.48-50.22-50.22-50.22Z"></path>
  <path class="cls-2" d="M731.87,10.01h0c-27.73,0-50.22,22.48-50.22,50.22v167.39c0,27.73,22.48,50.22,50.22,50.22s50.22-22.48,50.22-50.22V60.23c0-27.73-22.48-50.22-50.22-50.22Z"></path>
  <path class="cls-2" d="M843.75,10.01h0c-27.73,0-50.22,22.48-50.22,50.22v167.39c0,27.73,22.48,50.22,50.22,50.22s50.22-22.48,50.22-50.22V60.23c0-27.73-22.48-50.22-50.22-50.22Z"></path>
</svg>