<?xml version="1.0"?>
<svg id="_圖層_1" data-name="圖層 1" xmlns="http://www.w3.org/2000/svg" viewBox="0 0 255.2 347.06">
  <defs>
    
  </defs>
  <path class="cls-1" d="M164.15,307.44h0c27.73,0,50.22-22.48,50.22-50.22V89.83c0-27.73-22.48-50.22-50.22-50.22s-50.22,22.48-50.22,50.22v167.39c0,27.73,22.48,50.22,50.22,50.22Z"></path>
  <path class="cls-1" d="M141.26,307.44h0c27.73,0,50.22-22.48,50.22-50.22V89.83c0-27.73-22.48-50.22-50.22-50.22s-50.22,22.48-50.22,50.22v167.39c0,27.73,22.48,50.22,50.22,50.22Z"></path>
  <path class="cls-1" d="M113.93,307.44h0c27.73,0,50.22-22.48,50.22-50.22V89.83c0-27.73-22.48-50.22-50.22-50.22s-50.22,22.48-50.22,50.22v167.39c0,27.73,22.48,50.22,50.22,50.22Z"></path>
  <path class="cls-1" d="M91.05,307.44h0c27.73,0,50.22-22.48,50.22-50.22V89.83c0-27.73-22.48-50.22-50.22-50.22s-50.22,22.48-50.22,50.22v167.39c0,27.73,22.48,50.22,50.22,50.22Z"></path>
</svg>