<?xml version="1.0"?>
<svg id="_圖層_1" data-name="圖層 1" xmlns="http://www.w3.org/2000/svg" viewBox="0 0 255.2 347.06">
  <defs>
    
  </defs>
  <polygon class="cls-1" points="37.94 307.44 37.94 39.62 37.94 39.62 138.37 307.44 138.37 307.44 37.94 307.44"></polygon>
  <polygon class="cls-1" points="57.66 307.44 57.66 39.62 57.66 39.62 158.09 307.44 158.09 307.44 57.66 307.44"></polygon>
  <polygon class="cls-1" points="77.38 307.44 77.38 39.62 77.38 39.62 177.81 307.44 177.81 307.44 77.38 307.44"></polygon>
  <polygon class="cls-1" points="97.1 307.44 97.1 39.62 97.1 39.62 197.53 307.44 197.53 307.44 97.1 307.44"></polygon>
  <polygon class="cls-1" points="116.82 307.44 116.82 39.62 116.83 39.62 217.26 307.44 217.26 307.44 116.82 307.44"></polygon>
</svg>