<?xml version="1.0"?>
<svg id="_圖層_1" data-name="圖層 1" xmlns="http://www.w3.org/2000/svg" viewBox="0 0 922.56 281.13">
  <defs>
    
  </defs>
  <polygon class="cls-1" points="21.84 6.66 21.84 274.47 21.84 274.47 122.27 6.66 122.27 6.66 21.84 6.66 21.84 6.66"></polygon>
  <polygon class="cls-2" points="133.72 6.66 133.72 274.47 133.72 274.47 234.15 6.66 234.15 6.66 133.72 6.66 133.72 6.66"></polygon>
  <polygon class="cls-2" points="245.59 6.66 245.59 274.47 245.59 274.47 346.03 6.66 346.02 6.66 245.59 6.66 245.59 6.66"></polygon>
  <polygon class="cls-2" points="357.47 6.66 357.47 274.47 357.47 274.47 457.9 6.66 457.9 6.66 357.47 6.66 357.47 6.66"></polygon>
  <polygon class="cls-2" points="469.35 6.66 469.35 274.47 469.35 274.47 569.78 6.66 569.78 6.66 469.35 6.66 469.35 6.66"></polygon>
  <polygon class="cls-2" points="581.22 6.66 581.22 274.47 581.22 274.47 681.65 6.66 681.65 6.66 581.22 6.66 581.22 6.66"></polygon>
  <polygon class="cls-2" points="693.1 6.66 693.1 274.47 693.1 274.47 793.53 6.66 793.53 6.66 693.1 6.66 693.1 6.66"></polygon>
  <polygon class="cls-2" points="804.97 6.66 804.97 274.47 804.97 274.47 905.4 6.66 905.4 6.66 804.97 6.66 804.97 6.66"></polygon>
</svg>