<?xml version="1.0"?>
<svg id="_圖層_1" data-name="圖層 1" xmlns="http://www.w3.org/2000/svg" viewBox="0 0 441.73 441.73">
  <defs>
    
  </defs>
  <rect class="cls-4" x="0" y="0" width="441.73" height="441.73" transform="translate(441.73 0) rotate(90)"></rect>
  <text class="cls-3" transform="translate(167.93 295.67)"><tspan x="0" y="0">MIO7</tspan></text>
  <text class="cls-2" transform="translate(169.03 334.84)"><tspan x="0" y="0">澪</tspan></text>
  <text class="cls-2" transform="translate(229.85 335.12)"><tspan x="0" y="0">柒</tspan></text>
  <polygon class="cls-1" points="217.92 115 217.92 256.54 217.92 256.54 271 115 271 115 217.92 115 217.92 115"></polygon>
  <path class="cls-1" d="M182.54,115h0c-14.66,0-26.54,11.88-26.54,26.54v88.46c0,14.66,11.88,26.54,26.54,26.54s26.54-11.88,26.54-26.54v-88.46c0-14.66-11.88-26.54-26.54-26.54Z"></path>
</svg>